<svg aria-hidden="true" version="1.1" xmlns="http://www.w3.org/2000/svg" xmlns:xlink="http://www.w3.org/1999/xlink">
<defs>
<symbol id="youtube" viewBox="0 0 32 32">
<title>youtube</title>
<path d="M28.768 16.536c-0.155-0.703-0.497-1.292-1.027-1.768s-1.14-0.756-1.831-0.839c-2.19-0.238-5.494-0.357-9.911-0.357s-7.714 0.119-9.893 0.357c-0.702 0.083-1.315 0.363-1.839 0.839s-0.869 1.065-1.036 1.768c-0.309 1.381-0.464 3.464-0.464 6.25 0 2.833 0.155 4.917 0.464 6.25 0.155 0.702 0.497 1.292 1.027 1.768s1.14 0.75 1.83 0.821c2.191 0.25 5.494 0.375 9.911 0.375s7.721-0.125 9.911-0.375c0.691-0.072 1.298-0.345 1.822-0.821s0.869-1.066 1.036-1.768c0.309-1.381 0.464-3.464 0.464-6.25-0-2.833-0.155-4.917-0.464-6.25zM10.322 18.34h-1.911v10.161h-1.786v-10.161h-1.875v-1.679h5.571v1.679zM15.143 28.5h-1.589v-0.965c-0.643 0.726-1.25 1.089-1.822 1.089-0.548 0-0.893-0.22-1.036-0.661-0.095-0.286-0.143-0.72-0.143-1.304v-6.982h1.589v6.5c0 0.381 0.006 0.589 0.018 0.625 0.036 0.25 0.161 0.375 0.375 0.375 0.321 0 0.661-0.25 1.018-0.75v-6.75h1.589v8.822zM21.214 25.857c0 0.869-0.053 1.465-0.16 1.786-0.203 0.654-0.625 0.982-1.268 0.982-0.571 0-1.125-0.327-1.661-0.982v0.857h-1.589v-11.839h1.589v3.875c0.512-0.643 1.066-0.964 1.661-0.964 0.643 0 1.065 0.333 1.268 1 0.107 0.309 0.16 0.899 0.16 1.768v3.517zM27.25 24.393h-3.196v1.554c0 0.821 0.274 1.232 0.821 1.232 0.393 0 0.631-0.214 0.714-0.643 0.024-0.119 0.036-0.482 0.036-1.089h1.625v0.232c0 0.584-0.012 0.929-0.036 1.036-0.035 0.321-0.16 0.643-0.375 0.964-0.429 0.631-1.072 0.947-1.929 0.947-0.821 0-1.464-0.304-1.928-0.911-0.345-0.441-0.518-1.131-0.518-2.072v-3.090c0-0.94 0.166-1.631 0.5-2.071 0.465-0.607 1.101-0.911 1.911-0.911 0.798 0 1.429 0.304 1.893 0.911 0.322 0.441 0.482 1.131 0.482 2.071v1.84z"></path>
<path d="M18.928 21.018c-0.274 0-0.542 0.131-0.804 0.393v5.375c0.262 0.262 0.53 0.393 0.804 0.393 0.464 0 0.697-0.399 0.697-1.197v-3.767c-0-0.798-0.232-1.197-0.697-1.197z"></path>
<path d="M24.857 21.018c-0.536 0-0.804 0.405-0.804 1.214v0.821h1.607v-0.821c0-0.809-0.268-1.214-0.803-1.214z"></path>
<path d="M9.286 7.125v4.839h1.786v-4.839l2.16-7.125h-1.821l-1.214 4.696-1.268-4.696h-1.893c0.333 1 0.72 2.113 1.161 3.339 0.56 1.643 0.922 2.905 1.089 3.786z"></path>
<path d="M15.625 12.089c0.821 0 1.452-0.304 1.893-0.911 0.334-0.441 0.5-1.143 0.5-2.107v-3.125c0-0.952-0.167-1.649-0.5-2.089-0.441-0.607-1.071-0.911-1.893-0.911-0.798 0-1.423 0.304-1.875 0.911-0.333 0.44-0.5 1.137-0.5 2.089v3.125c0 0.952 0.166 1.655 0.5 2.107 0.452 0.607 1.077 0.911 1.875 0.911zM14.857 5.625c0-0.821 0.256-1.232 0.768-1.232s0.768 0.411 0.768 1.232v3.75c0 0.834-0.256 1.25-0.768 1.25s-0.768-0.417-0.768-1.25v-3.75z"></path>
<path d="M20.535 12.089c0.596 0 1.209-0.369 1.84-1.107v0.982h1.625v-8.911h-1.625v6.804c-0.357 0.512-0.696 0.768-1.018 0.768-0.214 0-0.34-0.131-0.375-0.393-0.012-0.024-0.018-0.232-0.018-0.625v-6.553h-1.625v7.036c0 0.607 0.048 1.053 0.143 1.339 0.155 0.441 0.506 0.661 1.054 0.661z"></path>
</symbol>
<symbol id="facebook" viewBox="0 0 32 32">
<title>facebook</title>
<path d="M19 6h5v-6h-5c-3.86 0-7 3.14-7 7v3h-4v6h4v16h6v-16h5l1-6h-6v-3c0-0.542 0.458-1 1-1z"></path>
</symbol>
<symbol id="twitter" viewBox="0 0 32 32">
<title>twitter</title>
<path d="M32 7.075c-1.175 0.525-2.444 0.875-3.769 1.031 1.356-0.813 2.394-2.1 2.887-3.631-1.269 0.75-2.675 1.3-4.169 1.594-1.2-1.275-2.906-2.069-4.794-2.069-3.625 0-6.563 2.938-6.563 6.563 0 0.512 0.056 1.012 0.169 1.494-5.456-0.275-10.294-2.888-13.531-6.862-0.563 0.969-0.887 2.1-0.887 3.3 0 2.275 1.156 4.287 2.919 5.463-1.075-0.031-2.087-0.331-2.975-0.819 0 0.025 0 0.056 0 0.081 0 3.181 2.263 5.838 5.269 6.437-0.55 0.15-1.131 0.231-1.731 0.231-0.425 0-0.831-0.044-1.237-0.119 0.838 2.606 3.263 4.506 6.131 4.563-2.25 1.762-5.075 2.813-8.156 2.813-0.531 0-1.050-0.031-1.569-0.094 2.913 1.869 6.362 2.95 10.069 2.95 12.075 0 18.681-10.006 18.681-18.681 0-0.287-0.006-0.569-0.019-0.85 1.281-0.919 2.394-2.075 3.275-3.394z"></path>
</symbol>
<symbol id="trello" viewBox="0 0 32 32">
<title>trello</title>
<path d="M29 0h-26c-1.65 0-3 1.35-3 3v26c0 1.65 1.35 3 3 3h26c1.65 0 3-1.35 3-3v-26c0-1.65-1.35-3-3-3zM14 24c0 1.1-0.9 2-2 2h-4c-1.1 0-2-0.9-2-2v-16c0-1.1 0.9-2 2-2h4c1.1 0 2 0.9 2 2v16zM26 18c0 1.1-0.9 2-2 2h-4c-1.1 0-2-0.9-2-2v-10c0-1.1 0.9-2 2-2h4c1.1 0 2 0.9 2 2v10z"></path>
</symbol>
</defs>
</svg>
